<?xml version="1.0" standalone="no"?><!DOCTYPE svg PUBLIC "-//W3C//DTD SVG 1.1//EN" "http://www.w3.org/Graphics/SVG/1.1/DTD/svg11.dtd"><svg t="1725006506536" class="icon" viewBox="0 0 1024 1024" version="1.1" xmlns="http://www.w3.org/2000/svg" p-id="7698" xmlns:xlink="http://www.w3.org/1999/xlink" width="200" height="200"><path d="M658.432 696.32q60.416-58.368 60.416-182.272 0-117.76-61.44-176.128-57.344-56.32-145.408-56.32-89.088 0-146.432 56.32-60.416 58.368-60.416 179.2 0 119.808 60.416 180.224 59.392 56.32 146.432 56.32t146.432-57.344zM791.552 708.608q-37.888 73.728-114.688 115.712-76.8 40.96-164.864 40.96-142.336 0-231.424-91.136-88.064-90.112-88.064-257.024 0-184.32 105.472-272.384 87.04-74.752 214.016-74.752 140.288 0 230.4 90.112 89.088 92.16 89.088 247.808 0 126.976-39.936 200.704z" p-id="7699"></path></svg>